{
	"asset":{
		"generator":"Khronos glTF Blender I/O v3.5.30",
		"version":"2.0"
	},
	"scene":0,
	"scenes":[
		{
			"name":"Scene",
			"nodes":[
				0
			]
		}
	],
	"nodes":[
		{
			"mesh":0,
			"name":"capsule Rev B",
			"scale":[
				8.765012741088867,
				8.765012741088867,
				8.765012741088867
			]
		}
	],
	"materials":[
		{
			"name":"glass fiber.001",
			"pbrMetallicRoughness":{
				"baseColorFactor":[
					0.735653281211853,
					0,
					0.017149854451417923,
					1
				],
				"metallicFactor":0.6901408433914185,
				"roughnessFactor":0.6535211801528931
			}
		}
	],
	"meshes":[
		{
			"name":"Mesh_0.001",
			"primitives":[
				{
					"attributes":{
						"POSITION":0,
						"TEXCOORD_0":1,
						"NORMAL":2
					},
					"indices":3,
					"material":0
				}
			]
		}
	],
	"accessors":[
		{
			"bufferView":0,
			"componentType":5126,
			"count":8394,
			"max":[
				0.044449225068092346,
				0.0444275327026844,
				0.12700000405311584
			],
			"min":[
				-0.044449999928474426,
				-0.044425178319215775,
				0
			],
			"type":"VEC3"
		},
		{
			"bufferView":1,
			"componentType":5126,
			"count":8394,
			"type":"VEC2"
		},
		{
			"bufferView":2,
			"componentType":5126,
			"count":8394,
			"type":"VEC3"
		},
		{
			"bufferView":3,
			"componentType":5123,
			"count":28722,
			"type":"SCALAR"
		}
	],
	"bufferViews":[
		{
			"buffer":0,
			"byteLength":100728,
			"byteOffset":0,
			"target":34962
		},
		{
			"buffer":0,
			"byteLength":67152,
			"byteOffset":100728,
			"target":34962
		},
		{
			"buffer":0,
			"byteLength":100728,
			"byteOffset":167880,
			"target":34962
		},
		{
			"buffer":0,
			"byteLength":57444,
			"byteOffset":268608,
			"target":34963
		}
	],
	"buffers":[
		{
			"byteLength":326052,
			"uri":"capsule1.bin"
		}
	]
}
